<svg width="727" height="1090" viewBox="0 0 727 1090" fill="none" xmlns="http://www.w3.org/2000/svg">
<path fill-rule="evenodd" clip-rule="evenodd" d="M698.57 433.237V33.1387V2.50849C698.57 -4.65892 688.241 4.98893 679.45 13.2002C678.584 14.0088 677.733 14.8035 676.909 15.5669C672.494 18.3215 666.726 24.2757 660.849 30.341C657.114 34.1966 653.334 38.097 649.832 41.249C639.935 50.1569 595.68 89.9095 580.788 89.9095C565.896 89.9095 536.112 87.2061 517.158 80.4477C498.205 73.6893 448.114 57.4691 429.16 57.4691L410.207 56.1175L377.715 54.7658H343.87H319.501L295.132 57.4691L249.102 70.986L223.38 80.4477C211.196 85.4039 186.285 96.1273 184.119 99.3713C171.032 108.833 144.317 128.568 142.151 131.812C139.443 135.867 100.182 168.307 100.182 168.307L82.5829 185.879C77.1676 193.088 66.337 207.776 66.337 208.858C66.337 209.939 48.2862 239.045 39.2607 253.463L17.5996 315.64L10.8305 341.322L5.41527 361.598L0 414.313V464.325L1.35382 529.206L8.1229 573.812L17.5996 604.9L36.5531 650.857L56.8603 687.353L93.4134 737.365L135.382 780.619L190.888 826.576L247.749 848.203L249.746 848.817C248.152 831.999 248.419 813.717 251.366 794.171C251.366 776.947 235.516 759.043 227.591 752.244C223.691 742.424 218.231 720.894 227.591 713.34C220.294 705.282 207.891 677.759 216.646 632.132C216.646 620.045 200.293 598.389 192.117 589.072C187.84 580.637 181.852 561.121 192.117 550.545H158.529C150.604 545.257 139.509 530.98 158.529 516.174C177.549 501.367 186.581 471.729 188.72 458.761L216.646 415.324C221.301 406.888 225.024 385.56 202.683 367.732C180.342 349.904 218.03 294.833 239.667 269.527C234.887 262.35 227.515 246.259 236.27 239.31C222.684 227.223 202.381 193.304 229.855 154.324C231.635 154.324 234.055 153.044 237.155 151.404C245.225 147.136 257.901 140.43 275.896 147.525C283.695 138.334 310.238 123.805 354.015 139.216C354.314 139.216 355.109 138.929 356.365 138.475C367.761 134.363 417.14 116.545 479.684 174.721C493.27 177.365 522.329 187.185 529.877 205.315C544.091 205.819 576.295 217.855 591.39 261.972C609.128 267.89 647.243 299.139 657.81 376.797C665.307 384.301 677.055 401.173 679.06 425.081C685.857 429.459 692.581 432.572 698.57 433.237ZM421.375 457.553C429.741 484.089 456.497 538.389 504.969 543.747L507.988 697.476C503.46 712.333 489.421 741.971 469.495 741.669L442.323 752.244C449.358 780.518 459.932 835.97 454.094 860.717C471.511 856.366 495.36 850.937 507.682 848.203L544.235 838.741C550.552 830.631 568.062 814.141 587.557 813.059C611.925 811.708 641.709 837.39 645.771 842.796C645.971 843.063 646.175 843.334 646.382 843.607C650.354 848.874 655.248 855.362 655.248 863.072V886.05L713.462 910.38L694.508 846.851C699.472 844.148 709.4 836.579 709.4 827.928V809.004C708.949 805.4 706.422 797.65 699.924 795.487C696.38 794.308 692.837 794.158 689.743 794.026C685.745 793.857 682.497 793.719 680.97 791.432C680.02 790.01 677.738 787.59 675.175 784.872C670.431 779.841 664.724 773.79 664.724 771.157V754.937C665.176 751.333 667.703 743.583 674.201 741.42C677.811 740.069 685.844 737.365 689.093 737.365C693.155 737.365 706.693 731.958 709.4 729.255C709.836 728.82 710.448 728.244 711.179 727.556C714.985 723.974 722.021 717.353 724.292 711.683C726.458 706.276 727 704.024 727 703.573V675.188C725.646 670.232 721.855 659.508 717.523 656.264C716.063 655.171 714.504 653.88 712.899 652.552C708.555 648.957 703.878 645.086 699.924 644.099C697.667 643.198 692.613 641.396 690.447 641.396H672.847C669.237 642.297 661.746 644.64 660.663 646.802H657.955V564.35C659.309 559.394 664.724 547.589 675.555 540.02C686.385 532.45 712.559 509.832 724.292 499.469L717.523 495.414V456.215L421.375 457.553Z" fill="black"/>
<path d="M560.678 469.973C540.519 457.687 495.724 416.896 518.626 366.958C547.45 304.11 582.887 391.058 536.581 374.046C518.784 366.328 465.967 334.168 445.865 272.921C425.548 211.018 248.838 278.12 236.08 299.856C228.993 306.157 237.661 325.929 325.854 345.693C439.723 371.211 408.538 347.583 353.259 331.99C331.808 325.939 281.532 321.877 251.671 374.046C221.809 426.216 305.522 437.847 333.881 418.939C342.386 413.268 353.259 405.235 331.993 398.619C302.49 389.441 292.086 383.627 272.933 395.784C223.794 426.972 293.724 478.479 325.854 521.481C397.676 623.552 251.338 649.581 236.55 618.866C230.407 606.107 241.748 588.757 255.451 597.089C275.767 609.442 240.803 659.938 255.45 704.83C270.097 749.722 323.137 808.051 341.916 815.878C364.594 825.329 381.982 803.09 374.991 788.47C364.596 766.733 276.995 760.874 261.119 869.748C256.296 902.827 267.735 953.861 267.735 953.861C267.735 953.861 296.461 1025.97 311.203 1038.45L332.939 997.336C339.869 1015.29 347.871 1058.01 324.434 1085.23C359.084 1074.68 471.095 1039.01 445.392 956.224C419.688 873.434 478.466 904.244 465.236 927.399C449.846 954.334 353.726 856.517 560.678 867.858" stroke="black" stroke-width="9" stroke-linecap="round" stroke-linejoin="round"/>
</svg>
