<svg width="168" height="382" viewBox="0 0 168 382" fill="none" xmlns="http://www.w3.org/2000/svg">
<path d="M144 103.5C144 130.95 136.414 157.276 122.912 176.686C109.409 196.096 91.0956 207 72 207C52.9044 207 34.5909 196.096 21.0883 176.686C7.5857 157.276 2.88335e-06 130.95 0 103.5L72 103.5H144Z" fill="#473434"/>
<path d="M31.4141 33.6455L47.4141 156.646" stroke="#473434" stroke-width="21" stroke-linecap="round"/>
<path d="M99.1737 32.2911C99.9217 26.5405 105.19 22.4852 110.94 23.2332C116.691 23.9813 120.746 29.2494 119.998 35L99.1737 32.2911ZM119.998 35L103.998 158L83.1737 155.291L99.1737 32.2911L119.998 35Z" fill="#473434"/>
<path d="M100.106 167C78.1653 185 37.2501 233.5 49.1167 283.5C60.9834 333.5 131.317 362 165 370" stroke="#473434" stroke-width="24"/>
<path d="M75 128C75 126.343 73.6569 125 72 125C70.3431 125 69 126.343 69 128L75 128ZM69.8787 180.121C71.0503 181.293 72.9497 181.293 74.1213 180.121L93.2132 161.029C94.3848 159.858 94.3848 157.958 93.2132 156.787C92.0416 155.615 90.1421 155.615 88.9706 156.787L72 173.757L55.0294 156.787C53.8579 155.615 51.9584 155.615 50.7868 156.787C49.6152 157.958 49.6152 159.858 50.7868 161.029L69.8787 180.121ZM69 128L69 178L75 178L75 128L69 128Z" fill="white"/>
</svg>
